# xmcd
# 
# Track frame offsets:
#     150
#     20147
#     39209
#     59207
# 
# Disc length: 1041
# 
# Revision: 14
# Processed by: cddbd v1.5.2PL0 Copyright (c) Steve Scherf et al.
# Submitted via: fre:ac v1.0.17
# 
DISCID=33040f04
DTITLE=久保田利伸 - So Beautiful
DYEAR=2018
DGENRE=JPop
TTITLE0=So Beautiful
TTITLE1=Make U Funky
TTITLE2=So Beautiful (Instrumental)
TTITLE3=Make U Funky (Instrumental)
EXTD=
EXTT0=
EXTT1=
EXTT2=
EXTT3=
PLAYORDER=
